<svg fill="none" height="24" viewBox="0 0 24 24" width="24" xmlns="http://www.w3.org/2000/svg"><path d="m8 14v6.0645m0-6.0645 4-7 4 7m-8 0c2 2 6 2 8 0m-8 6.0645c1.20496.5988 2.5632.9355 4 .9355m-4-.9355c-2.96344-1.4727-5-4.5308-5-8.0645m13 2v6.0645m0-6.0645v6.0645m0 0c2.9634-1.4727 5-4.5308 5-8.0645m-5 8.0645c-1.205.5988-2.5632.9355-4 .9355m9-9c0 4.9706-4.0294 9-9 9m9-9c0-4.97056-4.0294-9-9-9-4.97056 0-9 4.02944-9 9m9 9c-4.97056 0-9-4.0294-9-9" stroke="#09090b" stroke-linecap="round" stroke-linejoin="round"/></svg>